<svg xmlns="http://www.w3.org/2000/svg" viewBox="0 0 64 80" x="0px" y="0px"  fill="#FFFFFF">
    <g data-name="11 Needs">
        <g>
            <path
                d="M21.447,24.105l-10-5a1,1,0,0,0-.894,0l-10,5a1,1,0,0,0,.894,1.79L2,25.618V36a1,1,0,0,0,1,1H19a1,1,0,0,0,1-1V25.618l.553.277a1,1,0,0,0,.894-1.79ZM18,35H10V31h2v2a1,1,0,0,0,2,0V30a1,1,0,0,0-1-1H9a1,1,0,0,0-1,1v5H4V24.618l7-3.5,7,3.5Z" />
            <path
                d="M60,37H46a1,1,0,0,1-1-1V28H43a1,1,0,0,1-1-1V21a1,1,0,0,1,.858-.99l7-1A1,1,0,0,1,51,20a2,2,0,0,0,4,0,1,1,0,0,1,1.142-.99l7,1A1,1,0,0,1,64,21v6a1,1,0,0,1-1,1H61v8A1,1,0,0,1,60,37ZM47,35H59V27a1,1,0,0,1,1-1h2V21.867l-5.163-.737a4,4,0,0,1-7.674,0L44,21.867V26h2a1,1,0,0,1,1,1Z" />
            <path d="M12,27H10a1,1,0,0,1,0-2h2a1,1,0,0,1,0,2Z" />
            <path d="M33,13H31a1,1,0,0,1,0-2h2a1,1,0,0,1,0,2Z" />
            <path d="M33,9H31a1,1,0,0,1,0-2h2a1,1,0,0,1,0,2Z" />
            <path d="M33,17H31a1,1,0,0,1,0-2h2a1,1,0,0,1,0,2Z" />
            <path d="M53,32a3,3,0,0,1,0-6,1,1,0,0,1,0,2,1,1,0,1,0,1,1,1,1,0,0,1,2,0A3,3,0,0,1,53,32Z" />
            <path
                d="M32,24a3.978,3.978,0,0,1-2.829-1.172C28.428,22.085,26,19.107,26,12S28.428,1.915,29.172,1.171a4,4,0,0,1,5.657,0C35.572,1.915,38,4.893,38,12c0,4.94-1.185,7.905-2.178,9.523a1,1,0,1,1-1.7-1.046c.859-1.4,1.882-4,1.882-8.477,0-6.639-2.321-9.149-2.585-9.414a2.048,2.048,0,0,0-2.829,0C30.321,2.851,28,5.361,28,12s2.321,9.149,2.585,9.414A1.99,1.99,0,0,0,32,22a1,1,0,0,1,0,2Z" />
            <path
                d="M19,64a1,1,0,0,1-.707-.293l-9-9a1,1,0,0,1,0-1.415l3-2.994a1,1,0,0,1,1.414,0l9,9a1,1,0,0,1,0,1.415l-3,2.994A1,1,0,0,1,19,64ZM11.415,54,19,61.586l1.585-1.581L13,52.419Z" />
            <path
                d="M49.835,47.45A13.25,13.25,0,0,0,47.6,44.963a3.98,3.98,0,0,0-2.909-.951,3.9,3.9,0,0,0-2.668,1.318L37.215,50H34.463A3.97,3.97,0,0,0,35,48V46a1,1,0,0,0-.91-1L23,44a3.748,3.748,0,0,0-2.415,1l-4.673,4.677a1,1,0,0,0,1.415,1.414L22,46.414A1.919,1.919,0,0,1,22.91,46L33,46.913V48a2,2,0,0,1-2,2H27a1,1,0,0,0,0,2H37.62a1,1,0,0,0,.7-.282l5.166-5.02a2,2,0,0,1,2.819-.216,11.212,11.212,0,0,1,1.386,1.435L40.518,55.3A2,2,0,0,1,39,56H23.236a1,1,0,0,0,0,2H39A3.952,3.952,0,0,0,42,56.649L49.717,48.7A1,1,0,0,0,49.835,47.45Z" />
            <path
                d="M16.484,20.388a1,1,0,0,1-.775-1.631,21.139,21.139,0,0,1,7.941-6.022,1,1,0,1,1,.8,1.835,19.133,19.133,0,0,0-7.186,5.45A1,1,0,0,1,16.484,20.388Z" />
            <path
                d="M45.821,18.566a1,1,0,0,1-.692-.277,18.938,18.938,0,0,0-5.578-3.721,1,1,0,1,1,.8-1.835,20.973,20.973,0,0,1,6.166,4.111,1,1,0,0,1-.692,1.722Z" />
            <path
                d="M48.577,44.191a1,1,0,0,1-.828-1.561,18.962,18.962,0,0,0,2.03-3.981,1,1,0,0,1,1.873.7,21,21,0,0,1-2.246,4.4A1,1,0,0,1,48.577,44.191Z" />
            <path
                d="M17.267,46.492a1,1,0,0,1-.738-.325,20.9,20.9,0,0,1-4.181-6.816,1,1,0,0,1,1.873-.7A18.894,18.894,0,0,0,18,44.816a1,1,0,0,1-.737,1.676Z" />
        </g>
    </g>
</svg>