<svg xmlns="http://www.w3.org/2000/svg" xmlns:xlink="http://www.w3.org/1999/xlink" version="1.1" x="0px" y="0px"
    viewBox="0 0 100 125" enable-background="new 0 0 100 100" xml:space="preserve" fill="#FFFFFF">
    <path
        d="M74.748,16.188h-5.625c-0.663,0-1.254,0.293-1.666,0.75h-8.782C57.96,12.792,54.347,9.625,50,9.625  c-4.347,0-7.96,3.167-8.675,7.313h-8.782c-0.412-0.457-1.002-0.75-1.666-0.75h-5.625c-1.243,0-2.25,1.007-2.25,2.25  s1.007,2.25,2.25,2.25h5.625c0.664,0,1.254-0.293,1.666-0.75h8.782c0.409,2.369,1.76,4.417,3.661,5.738  c-8.973,1.883-15.732,9.855-15.732,19.379v24.764c0,3.202,2.605,5.807,5.807,5.807H41.5v6.25c0,4.687,3.813,8.5,8.5,8.5  c4.687,0,8.5-3.813,8.5-8.5v-6.25h6.439c3.202,0,5.807-2.604,5.807-5.807V45.054c0-9.524-6.76-17.496-15.731-19.379  c1.899-1.321,3.252-3.369,3.66-5.738h8.782c0.412,0.457,1.003,0.75,1.666,0.75h5.625c1.242,0,2.25-1.007,2.25-2.25  S75.99,16.188,74.748,16.188z M55.5,81.875c0,3.032-2.468,5.5-5.5,5.5c-3.033,0-5.5-2.468-5.5-5.5V57.25c0-3.032,2.467-5.5,5.5-5.5  c3.032,0,5.5,2.468,5.5,5.5V81.875z M67.746,45.054v24.764c0,1.548-1.259,2.807-2.807,2.807H58.5V57.25c0-4.687-3.813-8.5-8.5-8.5  c-4.687,0-8.5,3.813-8.5,8.5v15.375h-6.439c-1.547,0-2.807-1.259-2.807-2.807V45.054c0-9.266,7.538-16.804,16.804-16.804h1.885  C60.208,28.25,67.746,35.788,67.746,45.054z M50,24.25c-3.205,0-5.813-2.607-5.813-5.813s2.607-5.813,5.813-5.813  s5.813,2.607,5.813,5.813S53.205,24.25,50,24.25z" />
</svg>