<svg xmlns="http://www.w3.org/2000/svg" xmlns:xlink="http://www.w3.org/1999/xlink" width="320" zoomAndPan="magnify" viewBox="0 0 240 239.999995" height="320" preserveAspectRatio="xMidYMid meet" version="1.0"><defs><clipPath id="c519ddb3e5"><path d="M 32.027344 32.027344 L 208.277344 32.027344 L 208.277344 208.277344 L 32.027344 208.277344 Z M 32.027344 32.027344 " clip-rule="nonzero"/></clipPath></defs><rect x="-24" width="288" fill="#ffffff" y="-23.999999" height="287.999994" fill-opacity="1"/><rect x="-24" width="288" fill="#bfbdbc" y="-23.999999" height="287.999994" fill-opacity="1"/><g clip-path="url(#c519ddb3e5)"><path fill="#bfbdbc" d="M 208.277344 120.15625 C 208.277344 168.824219 168.824219 208.277344 120.15625 208.277344 C 71.484375 208.277344 32.03125 168.824219 32.03125 120.15625 C 32.03125 71.484375 71.484375 32.03125 120.15625 32.03125 C 168.824219 32.03125 208.277344 71.484375 208.277344 120.15625 " fill-opacity="1" fill-rule="nonzero"/></g><path fill="#ffffff" d="M 151.457031 92.296875 C 151.457031 109.648438 137.390625 123.710938 120.042969 123.710938 C 102.691406 123.710938 88.625 109.648438 88.625 92.296875 C 88.625 74.945312 102.691406 60.878906 120.042969 60.878906 C 137.390625 60.878906 151.457031 74.945312 151.457031 92.296875 " fill-opacity="1" fill-rule="nonzero"/><path fill="#ffffff" d="M 120.042969 204.09375 C 142.273438 204.09375 162.578125 195.859375 178.082031 182.277344 C 173.269531 150.851562 159.097656 129.042969 120.042969 129.042969 C 82.082031 129.042969 67.390625 150.945312 62.226562 182.476562 C 77.703125 195.941406 97.917969 204.09375 120.042969 204.09375 " fill-opacity="1" fill-rule="nonzero"/></svg>