<svg xmlns:x="http://ns.adobe.com/Extensibility/1.0/" xmlns:i="http://ns.adobe.com/AdobeIllustrator/10.0/"
    xmlns:graph="http://ns.adobe.com/Graphs/1.0/" xmlns="http://www.w3.org/2000/svg"
    xmlns:xlink="http://www.w3.org/1999/xlink" version="1.1" x="0px" y="0px" viewBox="0 0 60 75"
    style="enable-background:new 0 0 60 60;" xml:space="preserve"  fill="#FFFFFF">
    <metadata>
        <?xpacket begin="&#65279;" id="W5M0MpCehiHzreSzNTczkc9d"?>
        <x:xmpmeta xmlns:x="adobe:ns:meta/" x:xmptk="Adobe XMP Core 5.6-c145 79.163499, 2018/08/13-16:40:22        " />
        <?xpacket end="w"?>
    </metadata>
    <path
        d="M52.4677734,5H7.5322266C6.1357422,5,5,6.1357422,5,7.5322266v20.9355469C5,29.0460815,5.2024536,29.5732422,5.5298462,30  C5.2024536,30.4267578,5,30.9539185,5,31.5322266v20.9355469C5,53.8642578,6.1357422,55,7.5322266,55h44.9355469  C53.8642578,55,55,53.8642578,55,52.4677734V31.5322266C55,30.9539185,54.7975464,30.4267578,54.4701538,30  C54.7975464,29.5732422,55,29.0460815,55,28.4677734V7.5322266C55,6.1357422,53.8642578,5,52.4677734,5z M7,7.5322266  C7,7.2382812,7.2387695,7,7.5322266,7h44.9355469C52.7612305,7,53,7.2382812,53,7.5322266v20.9355469  C53,28.7617188,52.7612305,29,52.4677734,29h-2.152832v-2.125c0-0.5527344-0.4477539-1-1-1h-7.9169922c-0.5522461,0-1,0.4472656-1,1  V29H19.6020508v-2.125c0-0.5527344-0.4477539-1-1-1h-7.9169922c-0.5522461,0-1,0.4472656-1,1V29h-2.152832  C7.2387695,29,7,28.7617188,7,28.4677734V7.5322266z M42.3979492,27.875h5.9169922v4.25h-5.9169922V27.875z M11.6850586,27.875  h5.9169922v4.25h-5.9169922V27.875z M53,52.4677734C53,52.7617188,52.7612305,53,52.4677734,53H7.5322266  C7.2387695,53,7,52.7617188,7,52.4677734V31.5322266C7,31.2382812,7.2387695,31,7.5322266,31h2.152832v2.125  c0,0.5527344,0.4477539,1,1,1h7.9169922c0.5522461,0,1-0.4472656,1-1V31h20.7958984v2.125c0,0.5527344,0.4477539,1,1,1h7.9169922  c0.5522461,0,1-0.4472656,1-1V31h2.152832C52.7612305,31,53,31.2382812,53,31.5322266V52.4677734z" />
    <path
        d="M11.0961914,15.28125c0.2558594,0,0.5117188-0.0976562,0.7070312-0.2929688l3.78125-3.78125  c0.390625-0.390625,0.390625-1.0234375,0-1.4140625s-1.0234375-0.390625-1.4140625,0l-3.78125,3.78125  c-0.390625,0.390625-0.390625,1.0234375,0,1.4140625C10.5844727,15.1835938,10.840332,15.28125,11.0961914,15.28125z" />
    <path
        d="M11.5454102,20.3320312C11.7407227,20.5273438,11.996582,20.625,12.2524414,20.625s0.5117188-0.0976562,0.7070312-0.2929688  l9.125-9.125c0.390625-0.390625,0.390625-1.0234375,0-1.4140625s-1.0234375-0.390625-1.4140625,0l-9.125,9.125  C11.1547852,19.3085938,11.1547852,19.9414062,11.5454102,20.3320312z" />
    <path
        d="M49.2724609,42.1513672l-10.8814087,1.1202393l-25.9242554,0.7977295C10.8730469,44.1191406,9.625,45.40625,9.625,47  s1.2480469,2.8808594,2.8417969,2.9306641l25.9107056,0.7973633l8.2953491,1.1166992  c0.0449219,0.0058594,0.0898438,0.0087891,0.1337891,0.0087891c0.425293,0,0.8105469-0.2714844,0.9482422-0.6835938  l2.5688477-7.7070312c0.1074219-0.3222656,0.0439453-0.6767578-0.168457-0.9423828  C49.9433594,42.2568359,49.6147461,42.1220703,49.2724609,42.1513672z M37.456543,48.6982422l-24.9282227-0.7675781  C12.0219727,47.9150391,11.625,47.5068359,11.625,47s0.3969727-0.9150391,0.9033203-0.9306641l24.9282227-0.7675781V48.6982422z   M46.1191406,49.7519531l-6.6625977-0.8969727v-3.6817627l8.4799805-0.8734131L47.369812,46h-2.7404175  c-0.5522461,0-1,0.4472656-1,1s0.4477539,1,1,1h2.0737305L46.1191406,49.7519531z" />
    <path
        d="M14.9399414,42.5625c1.9990234,0,3.625-1.6259766,3.625-3.625s-1.6259766-3.625-3.625-3.625s-3.625,1.6259766-3.625,3.625  S12.940918,42.5625,14.9399414,42.5625z M14.9399414,37.3125c0.8959961,0,1.625,0.7285156,1.625,1.625s-0.7290039,1.625-1.625,1.625  s-1.625-0.7285156-1.625-1.625S14.0439453,37.3125,14.9399414,37.3125z" />
    <path
        d="M26.5561523,42.5625c1.9990234,0,3.625-1.6259766,3.625-3.625s-1.6259766-3.625-3.625-3.625s-3.625,1.6259766-3.625,3.625  S24.5571289,42.5625,26.5561523,42.5625z M26.5561523,37.3125c0.8959961,0,1.625,0.7285156,1.625,1.625  s-0.7290039,1.625-1.625,1.625s-1.625-0.7285156-1.625-1.625S25.6601562,37.3125,26.5561523,37.3125z" />
    <path
        d="M38.1728516,42.5625c1.9990234,0,3.625-1.6259766,3.625-3.625s-1.6259766-3.625-3.625-3.625s-3.625,1.6259766-3.625,3.625  S36.1738281,42.5625,38.1728516,42.5625z M38.1728516,37.3125c0.8959961,0,1.625,0.7285156,1.625,1.625  s-0.7290039,1.625-1.625,1.625s-1.625-0.7285156-1.625-1.625S37.2768555,37.3125,38.1728516,37.3125z" />
    
</svg>