<svg xmlns="http://www.w3.org/2000/svg" xmlns:xlink="http://www.w3.org/1999/xlink" width="500" zoomAndPan="magnify" viewBox="0 0 375 374.999991" height="500" preserveAspectRatio="xMidYMid meet" version="1.0"><defs><clipPath id="fb629df6f4"><path d="M 63.1875 37.5 L 312.1875 37.5 L 312.1875 337.5 L 63.1875 337.5 Z M 63.1875 37.5 " clip-rule="nonzero"/></clipPath><clipPath id="9f6b0d1b2c"><path d="M 187 37.5 L 312.1875 37.5 L 312.1875 337.5 L 187 337.5 Z M 187 37.5 " clip-rule="nonzero"/></clipPath></defs><g clip-path="url(#fb629df6f4)"><path fill="#527ac6" d="M 187.6875 37.5 L 63.363281 78.878906 L 63.363281 160.34375 C 63.363281 230.898438 103.246094 295.351562 166.441406 326.890625 L 187.6875 337.5 L 208.914062 326.890625 C 272.128906 295.351562 312.011719 230.898438 312.011719 160.34375 L 312.011719 78.878906 L 187.6875 37.5 " fill-opacity="1" fill-rule="nonzero"/></g><g clip-path="url(#9f6b0d1b2c)"><path fill="#719bd8" d="M 187.6875 37.5 L 187.6875 337.5 L 208.914062 326.890625 C 272.128906 295.351562 312.011719 230.898438 312.011719 160.34375 L 312.011719 78.878906 L 187.6875 37.5 " fill-opacity="1" fill-rule="nonzero"/></g><path fill="#4466b9" d="M 187.6875 70.191406 L 94.445312 101.226562 L 94.445312 160.34375 C 94.445312 219.523438 127.347656 272.683594 180.34375 299.132812 L 187.6875 302.789062 L 195.03125 299.132812 C 248.050781 272.683594 280.929688 219.523438 280.929688 160.34375 L 280.929688 101.226562 L 187.6875 70.191406 " fill-opacity="1" fill-rule="nonzero"/><path fill="#527ac6" d="M 187.6875 70.191406 L 187.6875 302.789062 L 195.03125 299.132812 C 248.050781 272.683594 280.929688 219.523438 280.929688 160.34375 L 280.929688 101.226562 L 187.6875 70.191406 " fill-opacity="1" fill-rule="nonzero"/><path fill="#facb07" d="M 253.613281 152.707031 L 238.964844 138.078125 L 177.328125 199.621094 L 148.027344 170.367188 L 133.375 184.996094 L 177.328125 228.878906 L 253.613281 152.707031 " fill-opacity="1" fill-rule="nonzero"/></svg>